<?xml version="1.0" encoding="utf-8"?>
<!-- Generator: Adobe Illustrator 19.0.1, SVG Export Plug-In . SVG Version: 6.00 Build 0)  -->
<svg version="1.2" baseProfile="tiny" id="Layer_1" xmlns="http://www.w3.org/2000/svg" xmlns:xlink="http://www.w3.org/1999/xlink"
	 x="0px" y="0px" viewBox="247 -40.6 622 198.6" xml:space="preserve">
<path fill="#555" d="M338.1-25.8c0-8.2,6.6-14.8,14.8-14.8c8.2,0,14.8,6.6,14.8,14.8c0,8.2-6.6,14.8-14.8,14.8
	C344.7-11.1,338.1-17.7,338.1-25.8L338.1-25.8z"/>
<polygon fill="#555" points="346.5,11.7 346.5,3.2 314.8,-16.2 314.9,-0.8 "/>
<polygon fill="#555" points="359.2,11.5 359.2,3.2 390.5,-16 390.5,-0.8 "/>
<polygon fill="#555" points="346.3,39.6 346.3,17.8 300.3,-0.7 300.3,23.6 "/>
<polygon fill="#555" points="359.3,39.5 359.3,17.7 405.2,-0.4 405.2,23.8 "/>
<polygon fill="#555" points="346.4,45.5 278.1,21.6 278.1,70.2 "/>
<polygon fill="#555" points="359.5,45.5 426.7,21.6 426.7,70.2 "/>
<polygon fill="#555" points="340.7,54.2 364.6,54.2 364.6,118.9 340.7,118.9 "/>
<polygon fill="#555" points="333,117.4 333,56.8 304.5,67.1 304.5,105.5 "/>
<polygon fill="#555" points="371.3,117.4 371.3,56.8 399.8,67.1 399.8,105.5 "/>
<path fill="#555" d="M436-11.7c13.4,16,21.9,39.6,21.9,64.3c0,58.9-47.3,105.4-105.3,105.4C294.7,158,247,111.3,247,52.4
	c0-24.2,7.9-45.9,22-64.1c-6.5,10.4-8.8,15.2-12.6,29.2c-2.5,9.5-3.1,19.8-3.1,29.5c1.4,22.5,8.2,37,20.2,55.1
	c17.9,23.8,45.6,39.2,78.8,39.2c55.1,0,98.4-43.3,99.2-97.5C451.6,23.5,446.5,4.7,436-11.7L436-11.7z"/>
<g>
	<path fill="#555" d="M495.3,13.1v25.6h-5.4V13.1h-9.7V8.3h25.1v4.8H495.3z"/>
	<path fill="#555" d="M502.5,37.2l1.8-4.1c1.5,1.2,3.3,1.8,5.2,1.8c2,0,3-0.7,3-2.2c0-0.8-0.3-1.5-0.9-2.1
		c-0.6-0.5-1.8-1.2-3.5-1.9c-3.8-1.6-5.7-3.8-5.7-6.7c0-1.9,0.7-3.4,2.2-4.5s3.3-1.6,5.6-1.6c2.3,0,4.5,0.5,6.5,1.6l-1.5,4
		c-1.1-1-2.7-1.5-4.7-1.5c-1.8,0-2.7,0.7-2.7,2.2c0,0.6,0.3,1.1,0.9,1.5c0.6,0.5,1.9,1.1,3.8,1.8c1.9,0.8,3.3,1.7,4.2,2.8
		s1.3,2.4,1.3,4c0,2.1-0.8,3.7-2.3,4.9c-1.5,1.2-3.6,1.8-6.2,1.8c-1.5,0-2.7-0.1-3.6-0.4S503.9,38,502.5,37.2z"/>
	<path fill="#555" d="M536.5,38.7V25c0-1.4-0.4-2.5-1.3-3.3c-0.9-0.8-2-1.2-3.4-1.2c-0.9,0-1.7,0.2-2.6,0.7
		c-0.9,0.5-1.5,1-1.9,1.6v15.9h-5.3V8.2l5.3-1.2v10.9c1.3-1.2,3.2-1.8,5.5-1.8c2.8,0,4.9,0.8,6.5,2.3c1.5,1.5,2.3,3.7,2.3,6.6v13.7
		H536.5z"/>
	<path fill="#555" d="M569.1,39.1h-1.9l-6.1-13.6L555,39.1h-1.9l-8.4-22.6h5.4l4.5,13.2l5.4-13.2h1.9l5.6,13.3l4.8-13.3h5.1
		L569.1,39.1z"/>
	<path fill="#555" d="M592.9,36.4c-0.5,0.8-1.3,1.4-2.5,1.9s-2.4,0.7-3.7,0.7c-2.4,0-4.3-0.6-5.6-1.8c-1.4-1.2-2.1-2.9-2.1-5.1
		c0-2.6,1-4.6,2.9-6c1.9-1.4,4.7-2.2,8.2-2.2c0.6,0,1.3,0.1,2.2,0.3c0-2.6-1.7-3.9-5-3.9c-1.9,0-3.6,0.3-4.9,1l-1.1-4
		c1.8-0.9,3.9-1.3,6.4-1.3c3.4,0,5.9,0.8,7.4,2.3c1.6,1.5,2.4,4.5,2.4,8.8v4.7c0,3,0.6,4.8,1.8,5.6c-0.4,0.7-0.9,1.2-1.4,1.4
		c-0.5,0.2-1.1,0.3-1.8,0.3c-0.7,0-1.4-0.3-2-0.8C593.5,37.7,593.1,37.1,592.9,36.4z M592.4,28.2c-0.9-0.2-1.5-0.3-2-0.3
		c-4.1,0-6.1,1.3-6.1,4c0,2,1.2,3,3.5,3c3.1,0,4.7-1.6,4.7-4.7V28.2z"/>
	<path fill="#555" d="M617.4,38.7V25.8c0-1.9-0.4-3.3-1.1-4.1c-0.7-0.9-1.9-1.3-3.6-1.3c-0.8,0-1.6,0.2-2.4,0.6
		c-0.9,0.4-1.5,1-2,1.6v16h-5.2V16.5h3.7l1,2.1c1.4-1.7,3.5-2.5,6.2-2.5c2.6,0,4.7,0.8,6.2,2.4c1.5,1.6,2.3,3.8,2.3,6.6v13.6H617.4z
		"/>
	<path fill="#555" d="M648,29.2h-15.8c0.1,1.8,0.7,3.1,1.8,4.1c1.1,1,2.6,1.5,4.5,1.5c2.4,0,4.2-0.6,5.4-1.8l2,4
		c-1.8,1.5-4.5,2.2-8.2,2.2c-3.4,0-6.1-1-8-3c-2-2-3-4.7-3-8.3c0-3.5,1.1-6.3,3.2-8.5c2.2-2.2,4.8-3.3,7.8-3.3c3.2,0,5.8,1,7.7,2.9
		c1.9,1.9,2.9,4.4,2.9,7.3C648.4,26.9,648.3,27.9,648,29.2z M632.3,25.3h10.9c-0.4-3.2-2.2-4.9-5.4-4.9
		C634.9,20.4,633,22,632.3,25.3z"/>
	<path fill="#555" d="M665.6,8.3h5.4v20.6c0,1.6,0.5,3,1.5,4c1,1,2.4,1.5,4.1,1.5c1.9,0,3.5-0.5,4.5-1.5c1.1-1,1.6-2.4,1.6-4.1
		V8.3h5.4v20.9c0,3.1-1,5.6-3.1,7.3c-2.1,1.8-4.9,2.7-8.4,2.7c-3.5,0-6.2-0.9-8.2-2.6c-1.9-1.7-2.9-4.2-2.9-7.4V8.3z"/>
	<path fill="#555" d="M708.4,38.7V25.8c0-1.9-0.4-3.3-1.1-4.1c-0.7-0.9-1.9-1.3-3.6-1.3c-0.8,0-1.6,0.2-2.4,0.6
		c-0.9,0.4-1.5,1-2,1.6v16h-5.2V16.5h3.7l1,2.1c1.4-1.7,3.5-2.5,6.2-2.5c2.6,0,4.7,0.8,6.2,2.4c1.5,1.6,2.3,3.8,2.3,6.6v13.6H708.4z
		"/>
	<path fill="#555" d="M720.5,38.7V20.7h-2.8v-4.2h8.1v22.2H720.5z M723.2,7.9c0.8,0,1.5,0.3,2.1,0.9s0.9,1.3,0.9,2.1
		c0,0.8-0.3,1.5-0.9,2.1s-1.3,0.9-2.1,0.9s-1.5-0.3-2.1-0.9s-0.9-1.3-0.9-2.1c0-0.8,0.3-1.5,0.9-2.1S722.4,7.9,723.2,7.9z"/>
	<path fill="#555" d="M741,39.1h-1.9l-10-22.6h5.7l5.3,13.5l5.7-13.5h5.5L741,39.1z"/>
	<path fill="#555" d="M774,29.2h-15.8c0.1,1.8,0.7,3.1,1.8,4.1c1.1,1,2.6,1.5,4.5,1.5c2.4,0,4.2-0.6,5.4-1.8l2,4
		c-1.8,1.5-4.5,2.2-8.2,2.2c-3.4,0-6.1-1-8-3c-2-2-3-4.7-3-8.3c0-3.5,1.1-6.3,3.2-8.5c2.2-2.2,4.8-3.3,7.8-3.3c3.2,0,5.8,1,7.7,2.9
		c1.9,1.9,2.9,4.4,2.9,7.3C774.4,26.9,774.3,27.9,774,29.2z M758.3,25.3h10.9c-0.4-3.2-2.2-4.9-5.4-4.9
		C760.9,20.4,759,22,758.3,25.3z"/>
	<path fill="#555" d="M791.4,21.3c-0.9-0.6-1.9-0.9-3-0.9c-1.2,0-2.3,0.5-3.2,1.6c-0.9,1.1-1.4,2.4-1.4,4v12.6h-5.2V16.5h5.2v2
		c1.5-1.6,3.4-2.4,5.8-2.4c1.8,0,3.1,0.3,4.1,0.8L791.4,21.3z"/>
	<path fill="#555" d="M795.3,37.2l1.8-4.1c1.5,1.2,3.3,1.8,5.2,1.8c2,0,3-0.7,3-2.2c0-0.8-0.3-1.5-0.9-2.1
		c-0.6-0.5-1.8-1.2-3.5-1.9c-3.8-1.6-5.7-3.8-5.7-6.7c0-1.9,0.7-3.4,2.2-4.5s3.3-1.6,5.6-1.6c2.3,0,4.5,0.5,6.5,1.6l-1.5,4
		c-1.1-1-2.7-1.5-4.7-1.5c-1.8,0-2.7,0.7-2.7,2.2c0,0.6,0.3,1.1,0.9,1.5s1.9,1.1,3.8,1.8s3.3,1.7,4.2,2.8c0.9,1.1,1.3,2.4,1.3,4
		c0,2.1-0.8,3.7-2.3,4.9c-1.5,1.2-3.6,1.8-6.2,1.8c-1.5,0-2.7-0.1-3.6-0.4S796.7,38,795.3,37.2z"/>
	<path fill="#555" d="M816.3,38.7V20.7h-2.8v-4.2h8.1v22.2H816.3z M819,7.9c0.8,0,1.5,0.3,2.1,0.9s0.9,1.3,0.9,2.1
		c0,0.8-0.3,1.5-0.9,2.1s-1.3,0.9-2.1,0.9s-1.5-0.3-2.1-0.9s-0.9-1.3-0.9-2.1c0-0.8,0.3-1.5,0.9-2.1S818.2,7.9,819,7.9z"/>
	<path fill="#555" d="M828.4,20.6h-2.6v-4.2h2.6V12l5.2-1.9v6.4h6.1v4.2h-6.1v9.7c0,1.6,0.2,2.7,0.7,3.4c0.5,0.7,1.4,1,2.6,1
		c1.2,0,2.4-0.3,3.5-1v4.8c-1.2,0.4-2.9,0.6-5.1,0.6c-2.2,0-3.9-0.6-5.1-1.9c-1.2-1.3-1.8-3-1.8-5.3V20.6z"/>
	<path fill="#555" d="M854.2,42.2c-0.6,1.5-1.7,2.7-3.6,3.7c-1.8,1-3.9,1.5-6.3,1.5v-4.6c4,0,6-1,6-3c0-1.3-0.6-3.4-1.7-6.1
		l-6.9-17.2h5.4l6,15.3l5.4-15.3h5.4L854.2,42.2z"/>
</g>
<g>
	<path fill="#555" d="M481.2,76.3c0-3.4,1-6.1,2.9-8.3s4.5-3.2,7.7-3.2c3.4,0,6,1,7.9,3.1s2.8,4.8,2.8,8.4c0,3.5-0.9,6.3-2.8,8.4
		c-1.9,2.1-4.5,3.1-7.8,3.1c-3.4,0-6-1.1-7.9-3.2C482.1,82.6,481.2,79.8,481.2,76.3z M486.6,76.3c0,4.9,1.8,7.3,5.3,7.3
		c1.6,0,2.9-0.6,3.8-1.9c0.9-1.3,1.4-3.1,1.4-5.4c0-4.8-1.8-7.2-5.3-7.2c-1.6,0-2.9,0.6-3.9,1.9C487,72.2,486.6,74,486.6,76.3z"/>
	<path fill="#555" d="M519,60.9c-1.1-0.4-2-0.6-2.6-0.6c-1,0-1.8,0.4-2.5,1.3c-0.7,0.8-1,1.9-1,3.1c0,0.2,0,0.4,0,0.5h4.6v4.3
		H513v17.9h-5.2V69.5h-3.2v-4.3h3.3c0.1-2.7,0.9-4.9,2.4-6.6s3.4-2.5,5.8-2.5c1.2,0,2.7,0.3,4.5,0.8L519,60.9z"/>
	<path fill="#555" d="M547,61.9v25.6h-5.4V61.9h-9.7v-4.8h25.1v4.8H547z"/>
	<path fill="#555" d="M575.4,77.9h-15.8c0.1,1.8,0.7,3.1,1.8,4.1c1.1,1,2.6,1.5,4.5,1.5c2.4,0,4.2-0.6,5.4-1.8l2,4
		c-1.8,1.5-4.5,2.2-8.2,2.2c-3.4,0-6.1-1-8-3c-2-2-3-4.7-3-8.3c0-3.5,1.1-6.3,3.2-8.5c2.2-2.2,4.8-3.3,7.8-3.3c3.2,0,5.8,1,7.7,2.9
		c1.9,1.9,2.9,4.4,2.9,7.3C575.8,75.7,575.7,76.6,575.4,77.9z M559.7,74h10.9c-0.4-3.2-2.2-4.9-5.4-4.9
		C562.3,69.2,560.4,70.8,559.7,74z"/>
	<path fill="#555" d="M597.4,67l-2.2,3.9c-1.2-1.1-2.8-1.7-4.9-1.7c-2,0-3.5,0.7-4.7,2c-1.1,1.3-1.7,3.1-1.7,5.4
		c0,4.7,2.2,7,6.6,7c1.9,0,3.6-0.6,5.1-1.9l1.9,4.1c-1.5,0.9-2.8,1.5-3.9,1.8c-1.1,0.2-2.5,0.4-4,0.4c-3.4,0-6.1-1-8.1-3
		c-2-2-3-4.8-3-8.3c0-3.5,1.1-6.3,3.3-8.5s5.1-3.2,8.9-3.2C593.2,64.8,595.4,65.6,597.4,67z"/>
	<path fill="#555" d="M616,87.4V73.8c0-1.4-0.4-2.5-1.3-3.3c-0.9-0.8-2-1.2-3.4-1.2c-0.9,0-1.7,0.2-2.6,0.7s-1.5,1-1.9,1.6v15.9
		h-5.3V57l5.3-1.2v10.9c1.3-1.2,3.2-1.8,5.5-1.8c2.8,0,4.9,0.8,6.5,2.3c1.5,1.5,2.3,3.7,2.3,6.6v13.7H616z"/>
	<path fill="#555" d="M641.1,87.4V74.6c0-1.9-0.4-3.3-1.1-4.1c-0.7-0.9-1.9-1.3-3.6-1.3c-0.8,0-1.6,0.2-2.4,0.6
		c-0.9,0.4-1.5,1-2,1.6v16h-5.2V65.3h3.7l1,2.1c1.4-1.7,3.5-2.5,6.2-2.5c2.6,0,4.7,0.8,6.2,2.4c1.5,1.6,2.3,3.8,2.3,6.6v13.6H641.1z
		"/>
	<path fill="#555" d="M650.4,76.3c0-3.4,1-6.1,2.9-8.3s4.5-3.2,7.7-3.2c3.4,0,6,1,7.9,3.1s2.8,4.8,2.8,8.4c0,3.5-0.9,6.3-2.8,8.4
		c-1.9,2.1-4.5,3.1-7.8,3.1c-3.4,0-6-1.1-7.9-3.2C651.3,82.6,650.4,79.8,650.4,76.3z M655.8,76.3c0,4.9,1.8,7.3,5.3,7.3
		c1.6,0,2.9-0.6,3.8-1.9c0.9-1.3,1.4-3.1,1.4-5.4c0-4.8-1.8-7.2-5.3-7.2c-1.6,0-2.9,0.6-3.9,1.9C656.3,72.2,655.8,74,655.8,76.3z"/>
	<path fill="#555" d="M676.8,57l5.2-1.2v24.9c0,2.7,0.8,4.4,2.4,4.9c-0.8,1.5-2.2,2.3-4.1,2.3c-2.3,0-3.5-1.6-3.5-4.9V57z"/>
	<path fill="#555" d="M686.9,76.3c0-3.4,1-6.1,2.9-8.3s4.5-3.2,7.7-3.2c3.4,0,6,1,7.9,3.1s2.8,4.8,2.8,8.4c0,3.5-0.9,6.3-2.8,8.4
		c-1.9,2.1-4.5,3.1-7.8,3.1c-3.4,0-6-1.1-7.9-3.2C687.9,82.6,686.9,79.8,686.9,76.3z M692.3,76.3c0,4.9,1.8,7.3,5.3,7.3
		c1.6,0,2.9-0.6,3.8-1.9c0.9-1.3,1.4-3.1,1.4-5.4c0-4.8-1.8-7.2-5.3-7.2c-1.6,0-2.9,0.6-3.9,1.9C692.8,72.2,692.3,74,692.3,76.3z"/>
	<path fill="#555" d="M710.7,93.1l3.3-4c1.8,1.7,3.8,2.5,6,2.5c1.5,0,2.7-0.2,3.7-0.7c1-0.4,1.5-1,1.5-1.8c0-1.3-1.1-2-3.2-2
		c-0.6,0-1.4,0.1-2.6,0.2s-2,0.2-2.6,0.2c-3.6,0-5.3-1.3-5.3-3.8c0-0.7,0.3-1.5,0.9-2.2s1.3-1.2,2.1-1.6c-2.5-1.6-3.8-4-3.8-7
		c0-2.4,0.9-4.3,2.6-5.9s3.9-2.3,6.4-2.3c2,0,3.7,0.4,5,1.1l2-2.4l3.6,3.3l-2.5,1.8c0.9,1.3,1.3,2.8,1.3,4.6c0,2.5-0.8,4.5-2.3,6.1
		c-1.5,1.5-3.5,2.3-5.8,2.3c-0.4,0-0.9,0-1.5-0.1l-0.8-0.1c-0.1,0-0.5,0.1-1.1,0.4c-0.6,0.3-1,0.6-1,0.9c0,0.6,0.5,0.8,1.4,0.8
		c0.4,0,1.1-0.1,2.2-0.3c1-0.2,1.9-0.3,2.6-0.3c5,0,7.6,2,7.6,6.1c0,2.2-1,4-3,5.3s-4.4,1.9-7.3,1.9
		C716.5,96.1,713.5,95.1,710.7,93.1z M715.9,73c0,1.3,0.4,2.4,1.1,3.2c0.7,0.8,1.7,1.2,2.9,1.2c1.2,0,2.2-0.4,2.8-1.2
		c0.7-0.8,1-1.8,1-3.2c0-1.1-0.4-2.1-1.1-2.8s-1.6-1.2-2.8-1.2c-1.2,0-2.2,0.4-2.9,1.1C716.3,70.9,715.9,71.9,715.9,73z"/>
	<path fill="#555" d="M743.5,91c-0.6,1.5-1.7,2.7-3.6,3.7c-1.8,1-3.9,1.5-6.3,1.5v-4.6c4,0,6-1,6-3c0-1.3-0.6-3.4-1.7-6.1
		L731,65.3h5.4l6,15.3l5.4-15.3h5.4L743.5,91z"/>
</g>
<g>
	<path fill="#555" d="M493.1,136.8h-1.3l-2-11.2l-5.9,11.2h-1.3l-2.6-18.6h3.3l1.4,11.1l5.8-11.1h1.4l1.7,11l5.4-11h3.5
		L493.1,136.8z"/>
	<path fill="#555" d="M503.8,130.7c0,0.2,0,0.4,0,0.6c0,0.9,0.3,1.7,0.8,2.2c0.6,0.5,1.3,0.8,2.3,0.8c0.5,0,1.1-0.1,1.8-0.4
		c0.7-0.3,1.2-0.6,1.6-1l-0.4,3.3c-1.1,0.5-2.4,0.7-3.9,0.7c-1.7,0-3-0.5-4-1.6c-1-1-1.5-2.5-1.5-4.3c0-2.3,0.7-4.2,2.2-5.7
		c1.5-1.5,3.4-2.3,5.8-2.3c1.4,0,2.6,0.3,3.4,0.9c0.9,0.6,1.3,1.4,1.3,2.6c0,1.5-0.7,2.7-2,3.6c-1.3,0.9-2.9,1.3-4.8,1.3
		C505.7,131.2,504.7,131,503.8,130.7z M504.4,128.4c0.5,0.2,1.1,0.2,1.8,0.2c1.1,0,2.1-0.2,2.9-0.5c0.8-0.3,1.2-0.8,1.2-1.5
		c0-0.7-0.8-1.1-2.4-1.1c-0.6,0-1.3,0.3-1.9,0.8S504.8,127.6,504.4,128.4z"/>
	<path fill="#555" d="M525.7,130.7c0,0.2,0,0.4,0,0.6c0,0.9,0.3,1.7,0.8,2.2c0.6,0.5,1.3,0.8,2.3,0.8c0.5,0,1.1-0.1,1.8-0.4
		c0.7-0.3,1.2-0.6,1.6-1l-0.4,3.3c-1.1,0.5-2.4,0.7-3.9,0.7c-1.7,0-3-0.5-4-1.6c-1-1-1.5-2.5-1.5-4.3c0-2.3,0.7-4.2,2.2-5.7
		c1.5-1.5,3.4-2.3,5.8-2.3c1.4,0,2.6,0.3,3.4,0.9c0.9,0.6,1.3,1.4,1.3,2.6c0,1.5-0.7,2.7-2,3.6c-1.3,0.9-2.9,1.3-4.8,1.3
		C527.5,131.2,526.6,131,525.7,130.7z M526.3,128.4c0.5,0.2,1.1,0.2,1.8,0.2c1.1,0,2.1-0.2,2.9-0.5c0.8-0.3,1.2-0.8,1.2-1.5
		c0-0.7-0.8-1.1-2.4-1.1c-0.6,0-1.3,0.3-1.9,0.8S526.7,127.6,526.3,128.4z"/>
	<path fill="#555" d="M556.2,127.8l-1.6,8.8h-3.2l1.6-8.5c0-0.3,0.1-0.6,0.1-0.9c0-1.2-0.6-1.7-1.8-1.7c-0.4,0-0.9,0.2-1.4,0.5
		s-0.9,0.6-1.1,1l-1.8,9.6h-3.2l1.8-9.4c0-0.1,0-0.2,0-0.3c0-0.9-0.7-1.3-2-1.3c-0.4,0-0.9,0.1-1.4,0.4s-0.9,0.6-1.2,1l-1.8,9.6
		h-3.2l1.8-9.7c0-0.2,0.1-0.6,0.1-1.1c0-0.8-0.1-1.6-0.4-2.4l3.1-0.5c0.1,0.4,0.2,0.8,0.3,1.2c1-0.8,2.3-1.2,3.8-1.2
		c1.8,0,3,0.5,3.8,1.4c1.1-1,2.4-1.4,4-1.4c2.7,0,4,1.2,4,3.7C556.3,126.9,556.3,127.3,556.2,127.8z"/>
	<path fill="#555" d="M560.6,136.2l-1,5.6h-3.1l2.7-14.5c0.1-0.5,0.1-1.1,0.1-1.6c0-0.7-0.1-1.5-0.2-2.2l3.1-0.6
		c0.1,0.3,0.2,0.7,0.3,1.3c1.2-0.9,2.3-1.3,3.5-1.3c3.6,0,5.4,1.7,5.4,5.2c0,2.5-0.7,4.6-2.2,6.3c-1.5,1.6-3.4,2.4-5.8,2.4
		C562.3,136.8,561.4,136.6,560.6,136.2z M561.1,133.5c0.4,0.4,1,0.6,1.8,0.6c1.6,0,2.9-0.5,3.8-1.5c0.9-1,1.3-2.4,1.3-4.2
		c0-0.9-0.3-1.5-0.8-2s-1.2-0.8-2.2-0.8c-0.4,0-0.9,0.1-1.4,0.4c-0.6,0.3-1,0.6-1.2,0.9L561.1,133.5z"/>
	<path fill="#555" d="M573,131.5c0-2.4,0.7-4.5,2.2-6.1c1.5-1.7,3.3-2.5,5.6-2.5c1.7,0,3.1,0.4,4,1.3c0.9,0.9,1.4,2.2,1.4,3.8
		c0,2.5-0.7,4.5-2.2,6.2c-1.5,1.7-3.3,2.5-5.7,2.5c-1.7,0-3-0.5-4-1.4C573.5,134.5,573,133.2,573,131.5z M576.3,131.4
		c0,1.9,0.8,2.9,2.5,2.9c1.3,0,2.3-0.6,3.1-1.8s1.1-2.6,1.1-4.3c0-1.8-0.8-2.7-2.5-2.7c-1.3,0-2.3,0.6-3.1,1.8
		S576.3,129.8,576.3,131.4z"/>
	<path fill="#555" d="M600.1,136.8h-1.1l-2.3-7.7l-5,7.7h-1.2l-2.6-13.6h3.2l1.3,7.4l4.6-7.4h1.1l2.2,7.5l3.9-7.5h3.3
		L600.1,136.8z"/>
	<path fill="#555" d="M610.9,130.7c0,0.2,0,0.4,0,0.6c0,0.9,0.3,1.7,0.8,2.2c0.6,0.5,1.3,0.8,2.3,0.8c0.5,0,1.1-0.1,1.8-0.4
		c0.7-0.3,1.2-0.6,1.6-1l-0.4,3.3c-1.1,0.5-2.4,0.7-3.9,0.7c-1.7,0-3-0.5-4-1.6c-1-1-1.5-2.5-1.5-4.3c0-2.3,0.7-4.2,2.2-5.7
		s3.4-2.3,5.8-2.3c1.4,0,2.6,0.3,3.4,0.9c0.9,0.6,1.3,1.4,1.3,2.6c0,1.5-0.7,2.7-2,3.6c-1.3,0.9-2.9,1.3-4.8,1.3
		C612.7,131.2,611.7,131,610.9,130.7z M611.5,128.4c0.5,0.2,1.1,0.2,1.8,0.2c1.1,0,2.1-0.2,2.9-0.5c0.8-0.3,1.2-0.8,1.2-1.5
		c0-0.7-0.8-1.1-2.4-1.1c-0.6,0-1.3,0.3-1.9,0.8C612.3,126.9,611.8,127.6,611.5,128.4z"/>
	<path fill="#555" d="M631.6,126.3c-0.7-0.5-1.4-0.8-2-0.8c-0.8,0-1.5,0.4-2.2,1.1c-0.7,0.7-1.1,1.5-1.3,2.4l-1.4,7.6h-3.1
		l2.5-13.4h3.1l-0.2,1.2c1.1-0.9,2.3-1.4,3.7-1.4c0.3,0,1,0.1,1.8,0.2L631.6,126.3z"/>
	<path fill="#555" d="M643.7,136.2l-1,5.6h-3.1l2.7-14.5c0.1-0.5,0.1-1.1,0.1-1.6c0-0.7-0.1-1.5-0.2-2.2l3.1-0.6
		c0.1,0.3,0.2,0.7,0.3,1.3c1.2-0.9,2.3-1.3,3.5-1.3c3.6,0,5.4,1.7,5.4,5.2c0,2.5-0.7,4.6-2.2,6.3c-1.5,1.6-3.4,2.4-5.8,2.4
		C645.4,136.8,644.5,136.6,643.7,136.2z M644.2,133.5c0.4,0.4,1,0.6,1.8,0.6c1.6,0,2.9-0.5,3.8-1.5c0.9-1,1.3-2.4,1.3-4.2
		c0-0.9-0.3-1.5-0.8-2s-1.2-0.8-2.2-0.8c-0.4,0-0.9,0.1-1.4,0.4c-0.6,0.3-1,0.6-1.2,0.9L644.2,133.5z"/>
	<path fill="#555" d="M659.5,130.7c0,0.2,0,0.4,0,0.6c0,0.9,0.3,1.7,0.8,2.2c0.6,0.5,1.3,0.8,2.3,0.8c0.5,0,1.1-0.1,1.8-0.4
		c0.7-0.3,1.2-0.6,1.6-1l-0.4,3.3c-1.1,0.5-2.4,0.7-3.9,0.7c-1.7,0-3-0.5-4-1.6c-1-1-1.5-2.5-1.5-4.3c0-2.3,0.7-4.2,2.2-5.7
		s3.4-2.3,5.8-2.3c1.4,0,2.6,0.3,3.4,0.9c0.9,0.6,1.3,1.4,1.3,2.6c0,1.5-0.7,2.7-2,3.6c-1.3,0.9-2.9,1.3-4.8,1.3
		C661.3,131.2,660.4,131,659.5,130.7z M660.1,128.4c0.5,0.2,1.1,0.2,1.8,0.2c1.1,0,2.1-0.2,2.9-0.5c0.8-0.3,1.2-0.8,1.2-1.5
		c0-0.7-0.8-1.1-2.4-1.1c-0.6,0-1.3,0.3-1.9,0.8C661,126.9,660.5,127.6,660.1,128.4z"/>
	<path fill="#555" d="M670.2,131.5c0-2.4,0.7-4.5,2.2-6.1c1.5-1.7,3.3-2.5,5.6-2.5c1.7,0,3.1,0.4,4,1.3c0.9,0.9,1.4,2.2,1.4,3.8
		c0,2.5-0.7,4.5-2.2,6.2c-1.5,1.7-3.3,2.5-5.7,2.5c-1.7,0-3-0.5-4-1.4C670.7,134.5,670.2,133.2,670.2,131.5z M673.5,131.4
		c0,1.9,0.8,2.9,2.5,2.9c1.3,0,2.3-0.6,3.1-1.8s1.1-2.6,1.1-4.3c0-1.8-0.8-2.7-2.5-2.7c-1.3,0-2.3,0.6-3.1,1.8
		S673.5,129.8,673.5,131.4z"/>
	<path fill="#555" d="M687.8,136.2l-1,5.6h-3.1l2.7-14.5c0.1-0.5,0.1-1.1,0.1-1.6c0-0.7-0.1-1.5-0.2-2.2l3.1-0.6
		c0.1,0.3,0.2,0.7,0.3,1.3c1.2-0.9,2.3-1.3,3.5-1.3c3.6,0,5.4,1.7,5.4,5.2c0,2.5-0.7,4.6-2.2,6.3c-1.5,1.6-3.4,2.4-5.8,2.4
		C689.4,136.8,688.6,136.6,687.8,136.2z M688.2,133.5c0.4,0.4,1,0.6,1.8,0.6c1.6,0,2.9-0.5,3.8-1.5c0.9-1,1.3-2.4,1.3-4.2
		c0-0.9-0.3-1.5-0.8-2s-1.2-0.8-2.2-0.8c-0.4,0-0.9,0.1-1.4,0.4c-0.6,0.3-1,0.6-1.2,0.9L688.2,133.5z"/>
	<path fill="#555" d="M705.2,135.5c-0.5,0.8-1.2,1.2-2.2,1.2c-0.8,0-1.3-0.2-1.8-0.7c-0.4-0.5-0.7-1.1-0.7-1.9
		c0-1,0.2-2.5,0.6-4.4l2.5-12h3.1l-2.6,12.5c-0.4,1.8-0.6,3-0.6,3.8c0,0.5,0.2,0.9,0.5,1.1C704.4,135.4,704.8,135.5,705.2,135.5z"/>
	<path fill="#555" d="M711.8,130.7c0,0.2,0,0.4,0,0.6c0,0.9,0.3,1.7,0.8,2.2c0.6,0.5,1.3,0.8,2.3,0.8c0.5,0,1.1-0.1,1.8-0.4
		c0.7-0.3,1.2-0.6,1.6-1l-0.4,3.3c-1.1,0.5-2.4,0.7-3.9,0.7c-1.7,0-3-0.5-4-1.6c-1-1-1.5-2.5-1.5-4.3c0-2.3,0.7-4.2,2.2-5.7
		s3.4-2.3,5.8-2.3c1.4,0,2.6,0.3,3.4,0.9c0.9,0.6,1.3,1.4,1.3,2.6c0,1.5-0.7,2.7-2,3.6c-1.3,0.9-2.9,1.3-4.8,1.3
		C713.6,131.2,712.6,131,711.8,130.7z M712.4,128.4c0.5,0.2,1.1,0.2,1.8,0.2c1.1,0,2.1-0.2,2.9-0.5c0.8-0.3,1.2-0.8,1.2-1.5
		c0-0.7-0.8-1.1-2.4-1.1c-0.6,0-1.3,0.3-1.9,0.8C713.2,126.9,712.7,127.6,712.4,128.4z"/>
</g>
</svg>
