<?xml version="1.0" encoding="utf-8"?>
<!-- Generator: Adobe Illustrator 19.0.1, SVG Export Plug-In . SVG Version: 6.00 Build 0)  -->
<svg version="1.2" baseProfile="tiny" xmlns="http://www.w3.org/2000/svg" xmlns:xlink="http://www.w3.org/1999/xlink" x="0px"
	 y="0px" viewBox="0 0 282 123" xml:space="preserve">
<g id="Layer_1">
	<path fill="#FFFFFF" d="M42.1,7.6c0-3.7,3-6.6,6.7-6.6c3.7,0,6.7,3,6.7,6.6c0,3.7-3,6.6-6.7,6.6C45.1,14.2,42.1,11.3,42.1,7.6
		L42.1,7.6z"/>
	<polygon fill="#FFFFFF" points="45.9,24.4 45.9,20.6 31.6,11.9 31.6,18.8 45.9,24.4 	"/>
	<polygon fill="#FFFFFF" points="51.6,24.3 51.6,20.6 65.8,12 65.8,18.8 51.6,24.3 	"/>
	<polygon fill="#FFFFFF" points="45.8,36.9 45.8,27.2 25.1,18.9 25.1,29.8 45.8,36.9 	"/>
	<polygon fill="#FFFFFF" points="51.7,36.9 51.7,27.1 72.4,19 72.4,29.8 51.7,36.9 	"/>
	<polygon fill="#FFFFFF" points="45.9,39.6 15,28.9 15,50.7 45.9,39.6 	"/>
	<polygon fill="#FFFFFF" points="51.8,39.6 82.1,28.9 82.1,50.7 51.8,39.6 	"/>
	<polygon fill="#FFFFFF" points="43.3,43.5 54,43.5 54,72.5 43.3,72.5 43.3,43.5 	"/>
	<polygon fill="#FFFFFF" points="39.8,71.8 39.8,44.6 26.9,49.3 26.9,66.5 39.8,71.8 	"/>
	<polygon fill="#FFFFFF" points="57.1,71.8 57.1,44.6 69.9,49.3 69.9,66.5 57.1,71.8 	"/>
	<path fill="#FFFFFF" d="M86.3,13.9c6.1,7.2,9.9,17.7,9.9,28.8C96.1,69.2,74.8,90,48.7,90C22.5,90,1,69.1,1,42.7
		c0-10.9,3.6-20.6,9.9-28.7C8,18.6,6.9,20.7,5.3,27c-1.1,4.2-1.4,8.9-1.4,13.2C4.5,50.3,7.6,56.8,13,64.9
		c8.1,10.7,20.6,17.6,35.6,17.6c24.8,0,44.4-19.4,44.8-43.7C93.3,29.7,91,21.3,86.3,13.9L86.3,13.9z"/>
	<g>
		<path fill="#FFFFFF" d="M113,25.1v11.5h-2.4V25.1h-4.4v-2.1h11.3v2.1H113z"/>
		<path fill="#FFFFFF" d="M118.4,35.9l0.8-1.8c0.7,0.6,1.5,0.8,2.4,0.8c0.9,0,1.4-0.3,1.4-1c0-0.4-0.1-0.7-0.4-0.9
			c-0.3-0.2-0.8-0.5-1.6-0.9c-1.7-0.7-2.6-1.7-2.6-3c0-0.9,0.3-1.5,1-2c0.7-0.5,1.5-0.7,2.5-0.7c1,0,2,0.2,2.9,0.7l-0.7,1.8
			c-0.5-0.4-1.2-0.6-2.1-0.6c-0.8,0-1.2,0.3-1.2,1c0,0.3,0.1,0.5,0.4,0.7s0.8,0.5,1.7,0.8c0.9,0.3,1.5,0.8,1.9,1.2s0.6,1.1,0.6,1.8
			c0,0.9-0.3,1.6-1,2.2c-0.7,0.5-1.6,0.8-2.8,0.8c-0.7,0-1.2-0.1-1.6-0.2C119.5,36.4,119,36.2,118.4,35.9z"/>
		<path fill="#FFFFFF" d="M133.7,36.5v-6.1c0-0.6-0.2-1.1-0.6-1.5c-0.4-0.4-0.9-0.6-1.5-0.6c-0.4,0-0.8,0.1-1.2,0.3
			c-0.4,0.2-0.7,0.4-0.8,0.7v7.1h-2.4V22.9l2.4-0.6v4.9c0.6-0.5,1.4-0.8,2.5-0.8c1.3,0,2.2,0.3,2.9,1c0.7,0.7,1,1.7,1,3v6.1H133.7z"
			/>
		<path fill="#FFFFFF" d="M148.4,36.7h-0.9l-2.7-6.1l-2.7,6.1h-0.9l-3.8-10.1h2.5l2,5.9l2.4-5.9h0.8l2.5,6l2.2-6h2.3L148.4,36.7z"/>
		<path fill="#FFFFFF" d="M159.2,35.5c-0.2,0.3-0.6,0.6-1.1,0.8c-0.5,0.2-1.1,0.3-1.6,0.3c-1.1,0-1.9-0.3-2.5-0.8
			c-0.6-0.5-0.9-1.3-0.9-2.3c0-1.2,0.4-2.1,1.3-2.7c0.9-0.6,2.1-1,3.7-1c0.3,0,0.6,0,1,0.1c0-1.2-0.7-1.8-2.2-1.8
			c-0.9,0-1.6,0.1-2.2,0.4L154,27c0.8-0.4,1.8-0.6,2.9-0.6c1.5,0,2.6,0.3,3.4,1c0.7,0.7,1.1,2,1.1,3.9v2.1c0,1.3,0.3,2.2,0.8,2.5
			c-0.2,0.3-0.4,0.5-0.6,0.6c-0.2,0.1-0.5,0.1-0.8,0.1c-0.3,0-0.6-0.1-0.9-0.4C159.4,36.1,159.3,35.8,159.2,35.5z M158.9,31.8
			c-0.4-0.1-0.7-0.1-0.9-0.1c-1.8,0-2.8,0.6-2.8,1.8c0,0.9,0.5,1.3,1.6,1.3c1.4,0,2.1-0.7,2.1-2.1V31.8z"/>
		<path fill="#FFFFFF" d="M170.2,36.5v-5.7c0-0.8-0.2-1.5-0.5-1.9c-0.3-0.4-0.9-0.6-1.6-0.6c-0.3,0-0.7,0.1-1.1,0.3
			s-0.7,0.4-0.9,0.7v7.2h-2.3v-9.9h1.7l0.4,0.9c0.6-0.7,1.6-1.1,2.8-1.1c1.2,0,2.1,0.4,2.8,1.1c0.7,0.7,1,1.7,1,3v6.1H170.2z"/>
		<path fill="#FFFFFF" d="M184,32.3h-7.1c0,0.8,0.3,1.4,0.8,1.8s1.2,0.7,2,0.7c1.1,0,1.9-0.3,2.4-0.8l0.9,1.8c-0.8,0.7-2,1-3.7,1
			c-1.5,0-2.7-0.4-3.6-1.3s-1.3-2.1-1.3-3.7c0-1.6,0.5-2.8,1.5-3.8c1-1,2.1-1.5,3.5-1.5c1.5,0,2.6,0.4,3.5,1.3
			c0.9,0.9,1.3,2,1.3,3.3C184.2,31.3,184.2,31.7,184,32.3z M177,30.5h4.9c-0.2-1.5-1-2.2-2.4-2.2C178.1,28.3,177.3,29.1,177,30.5z"
			/>
		<path fill="#FFFFFF" d="M192,22.9h2.4v9.2c0,0.7,0.2,1.3,0.7,1.8c0.4,0.5,1.1,0.7,1.9,0.7c0.9,0,1.6-0.2,2.1-0.7
			c0.5-0.4,0.7-1.1,0.7-1.8v-9.2h2.4v9.4c0,1.4-0.5,2.5-1.4,3.3c-0.9,0.8-2.2,1.2-3.8,1.2c-1.6,0-2.8-0.4-3.7-1.2
			c-0.9-0.8-1.3-1.9-1.3-3.3V22.9z"/>
		<path fill="#FFFFFF" d="M211.3,36.5v-5.7c0-0.8-0.2-1.5-0.5-1.9c-0.3-0.4-0.9-0.6-1.6-0.6c-0.3,0-0.7,0.1-1.1,0.3
			s-0.7,0.4-0.9,0.7v7.2h-2.3v-9.9h1.7l0.4,0.9c0.6-0.7,1.6-1.1,2.8-1.1c1.2,0,2.1,0.4,2.8,1.1c0.7,0.7,1,1.7,1,3v6.1H211.3z"/>
		<path fill="#FFFFFF" d="M216.7,36.5v-8h-1.3v-1.9h3.6v9.9H216.7z M218,22.7c0.4,0,0.7,0.1,1,0.4s0.4,0.6,0.4,1
			c0,0.4-0.1,0.7-0.4,1c-0.3,0.3-0.6,0.4-1,0.4c-0.4,0-0.7-0.1-1-0.4c-0.3-0.3-0.4-0.6-0.4-1c0-0.4,0.1-0.7,0.4-1
			C217.3,22.9,217.6,22.7,218,22.7z"/>
		<path fill="#FFFFFF" d="M226,36.7h-0.8l-4.5-10.1h2.6l2.4,6.1l2.6-6.1h2.5L226,36.7z"/>
		<path fill="#FFFFFF" d="M240.9,32.3h-7.1c0,0.8,0.3,1.4,0.8,1.8s1.2,0.7,2,0.7c1.1,0,1.9-0.3,2.4-0.8l0.9,1.8c-0.8,0.7-2,1-3.7,1
			c-1.5,0-2.7-0.4-3.6-1.3s-1.3-2.1-1.3-3.7c0-1.6,0.5-2.8,1.5-3.8c1-1,2.1-1.5,3.5-1.5c1.5,0,2.6,0.4,3.5,1.3
			c0.9,0.9,1.3,2,1.3,3.3C241.1,31.3,241,31.7,240.9,32.3z M233.8,30.5h4.9c-0.2-1.5-1-2.2-2.4-2.2
			C234.9,28.3,234.1,29.1,233.8,30.5z"/>
		<path fill="#FFFFFF" d="M248.7,28.7c-0.4-0.3-0.9-0.4-1.4-0.4c-0.5,0-1,0.2-1.4,0.7c-0.4,0.5-0.6,1.1-0.6,1.8v5.7h-2.3v-9.9h2.3
			v0.9c0.7-0.7,1.5-1.1,2.6-1.1c0.8,0,1.4,0.1,1.8,0.4L248.7,28.7z"/>
		<path fill="#FFFFFF" d="M250.5,35.9l0.8-1.8c0.7,0.6,1.5,0.8,2.4,0.8c0.9,0,1.4-0.3,1.4-1c0-0.4-0.1-0.7-0.4-0.9
			c-0.3-0.2-0.8-0.5-1.6-0.9c-1.7-0.7-2.6-1.7-2.6-3c0-0.9,0.3-1.5,1-2c0.7-0.5,1.5-0.7,2.5-0.7c1,0,2,0.2,2.9,0.7l-0.7,1.8
			c-0.5-0.4-1.2-0.6-2.1-0.6c-0.8,0-1.2,0.3-1.2,1c0,0.3,0.1,0.5,0.4,0.7c0.3,0.2,0.8,0.5,1.7,0.8c0.9,0.3,1.5,0.8,1.9,1.2
			c0.4,0.5,0.6,1.1,0.6,1.8c0,0.9-0.3,1.6-1,2.2c-0.7,0.5-1.6,0.8-2.8,0.8c-0.7,0-1.2-0.1-1.6-0.2C251.6,36.4,251.1,36.2,250.5,35.9
			z"/>
		<path fill="#FFFFFF" d="M260,36.5v-8h-1.3v-1.9h3.6v9.9H260z M261.2,22.7c0.4,0,0.7,0.1,1,0.4s0.4,0.6,0.4,1c0,0.4-0.1,0.7-0.4,1
			c-0.3,0.3-0.6,0.4-1,0.4c-0.4,0-0.7-0.1-1-0.4c-0.3-0.3-0.4-0.6-0.4-1c0-0.4,0.1-0.7,0.4-1C260.5,22.9,260.8,22.7,261.2,22.7z"/>
		<path fill="#FFFFFF" d="M265.4,28.4h-1.2v-1.9h1.2v-2l2.3-0.9v2.9h2.7v1.9h-2.7v4.4c0,0.7,0.1,1.2,0.3,1.5
			c0.2,0.3,0.6,0.4,1.2,0.4s1.1-0.2,1.6-0.5v2.1c-0.5,0.2-1.3,0.3-2.3,0.3c-1,0-1.8-0.3-2.3-0.8c-0.5-0.6-0.8-1.4-0.8-2.4V28.4z"/>
		<path fill="#FFFFFF" d="M277.1,38.1c-0.2,0.7-0.8,1.2-1.6,1.6c-0.8,0.4-1.8,0.7-2.9,0.7v-2.1c1.8,0,2.7-0.4,2.7-1.3
			c0-0.6-0.2-1.5-0.7-2.7l-3.1-7.7h2.4l2.7,6.9l2.5-6.9h2.4L277.1,38.1z"/>
	</g>
	<g>
		<path fill="#FFFFFF" d="M106.6,53.4c0-1.5,0.4-2.8,1.3-3.7c0.9-1,2-1.4,3.5-1.4c1.5,0,2.7,0.5,3.5,1.4c0.8,0.9,1.3,2.2,1.3,3.8
			c0,1.6-0.4,2.8-1.3,3.8c-0.9,0.9-2,1.4-3.5,1.4c-1.5,0-2.7-0.5-3.5-1.4C107.1,56.2,106.6,54.9,106.6,53.4z M109.1,53.4
			c0,2.2,0.8,3.3,2.4,3.3c0.7,0,1.3-0.3,1.7-0.9s0.6-1.4,0.6-2.4c0-2.2-0.8-3.2-2.4-3.2c-0.7,0-1.3,0.3-1.7,0.9
			C109.3,51.6,109.1,52.4,109.1,53.4z"/>
		<path fill="#FFFFFF" d="M123.7,46.5c-0.5-0.2-0.9-0.3-1.2-0.3c-0.4,0-0.8,0.2-1.1,0.6c-0.3,0.4-0.5,0.8-0.5,1.4c0,0.1,0,0.2,0,0.2
			h2.1v1.9h-2v8h-2.3v-8h-1.5v-1.9h1.5c0-1.2,0.4-2.2,1.1-3c0.7-0.7,1.5-1.1,2.6-1.1c0.6,0,1.2,0.1,2,0.4L123.7,46.5z"/>
		<path fill="#FFFFFF" d="M136.7,46.9v11.5h-2.4V46.9h-4.4v-2.1h11.3v2.1H136.7z"/>
		<path fill="#FFFFFF" d="M151.6,54.1h-7.1c0,0.8,0.3,1.4,0.8,1.8s1.2,0.7,2,0.7c1.1,0,1.9-0.3,2.4-0.8l0.9,1.8c-0.8,0.7-2,1-3.7,1
			c-1.5,0-2.7-0.4-3.6-1.3s-1.3-2.1-1.3-3.7c0-1.6,0.5-2.8,1.5-3.8c1-1,2.1-1.5,3.5-1.5c1.5,0,2.6,0.4,3.5,1.3
			c0.9,0.9,1.3,2,1.3,3.3C151.8,53.1,151.7,53.5,151.6,54.1z M144.5,52.4h4.9c-0.2-1.5-1-2.2-2.4-2.2
			C145.7,50.2,144.9,50.9,144.5,52.4z"/>
		<path fill="#FFFFFF" d="M161.5,49.2l-1,1.7c-0.5-0.5-1.3-0.8-2.2-0.8c-0.9,0-1.6,0.3-2.1,0.9c-0.5,0.6-0.8,1.4-0.8,2.4
			c0,2.1,1,3.1,3,3.1c0.9,0,1.6-0.3,2.3-0.9l0.9,1.8c-0.7,0.4-1.3,0.7-1.8,0.8s-1.1,0.2-1.8,0.2c-1.5,0-2.8-0.4-3.7-1.3
			c-0.9-0.9-1.3-2.1-1.3-3.7c0-1.6,0.5-2.8,1.5-3.8c1-1,2.3-1.4,4-1.4C159.7,48.2,160.7,48.6,161.5,49.2z"/>
		<path fill="#FFFFFF" d="M169.9,58.4v-6.1c0-0.6-0.2-1.1-0.6-1.5c-0.4-0.4-0.9-0.6-1.5-0.6c-0.4,0-0.8,0.1-1.2,0.3
			c-0.4,0.2-0.7,0.4-0.8,0.7v7.1h-2.4V44.7l2.4-0.6v4.9c0.6-0.5,1.4-0.8,2.5-0.8c1.3,0,2.2,0.3,2.9,1c0.7,0.7,1,1.7,1,3v6.1H169.9z"
			/>
		<path fill="#FFFFFF" d="M181.3,58.4v-5.7c0-0.8-0.2-1.5-0.5-1.9c-0.3-0.4-0.9-0.6-1.6-0.6c-0.3,0-0.7,0.1-1.1,0.3
			c-0.4,0.2-0.7,0.4-0.9,0.7v7.2h-2.3v-9.9h1.7l0.4,0.9c0.6-0.7,1.6-1.1,2.8-1.1c1.2,0,2.1,0.4,2.8,1.1c0.7,0.7,1,1.7,1,3v6.1H181.3
			z"/>
		<path fill="#FFFFFF" d="M185.5,53.4c0-1.5,0.4-2.8,1.3-3.7s2-1.4,3.5-1.4c1.5,0,2.7,0.5,3.5,1.4s1.3,2.2,1.3,3.8
			c0,1.6-0.4,2.8-1.3,3.8s-2,1.4-3.5,1.4c-1.5,0-2.7-0.5-3.5-1.4C185.9,56.2,185.5,54.9,185.5,53.4z M187.9,53.4
			c0,2.2,0.8,3.3,2.4,3.3c0.7,0,1.3-0.3,1.7-0.9s0.6-1.4,0.6-2.4c0-2.2-0.8-3.2-2.4-3.2c-0.7,0-1.3,0.3-1.7,0.9
			C188.1,51.6,187.9,52.4,187.9,53.4z"/>
		<path fill="#FFFFFF" d="M197.3,44.7l2.3-0.6v11.2c0,1.2,0.4,2,1.1,2.2c-0.4,0.7-1,1-1.9,1c-1.1,0-1.6-0.7-1.6-2.2V44.7z"/>
		<path fill="#FFFFFF" d="M201.9,53.4c0-1.5,0.4-2.8,1.3-3.7s2-1.4,3.5-1.4c1.5,0,2.7,0.5,3.5,1.4s1.3,2.2,1.3,3.8
			c0,1.6-0.4,2.8-1.3,3.8s-2,1.4-3.5,1.4c-1.5,0-2.7-0.5-3.5-1.4C202.4,56.2,201.9,54.9,201.9,53.4z M204.4,53.4
			c0,2.2,0.8,3.3,2.4,3.3c0.7,0,1.3-0.3,1.7-0.9s0.6-1.4,0.6-2.4c0-2.2-0.8-3.2-2.4-3.2c-0.7,0-1.3,0.3-1.7,0.9
			C204.6,51.6,204.4,52.4,204.4,53.4z"/>
		<path fill="#FFFFFF" d="M212.7,60.9l1.5-1.8c0.8,0.7,1.7,1.1,2.7,1.1c0.7,0,1.2-0.1,1.7-0.3c0.4-0.2,0.7-0.5,0.7-0.8
			c0-0.6-0.5-0.9-1.4-0.9c-0.3,0-0.7,0-1.2,0.1c-0.5,0.1-0.9,0.1-1.2,0.1c-1.6,0-2.4-0.6-2.4-1.7c0-0.3,0.1-0.7,0.4-1
			c0.3-0.3,0.6-0.5,0.9-0.7c-1.1-0.7-1.7-1.8-1.7-3.1c0-1.1,0.4-1.9,1.2-2.6s1.8-1,2.9-1c0.9,0,1.6,0.2,2.3,0.5l0.9-1.1l1.6,1.5
			l-1.1,0.8c0.4,0.6,0.6,1.3,0.6,2.1c0,1.1-0.3,2-1,2.7c-0.7,0.7-1.6,1-2.6,1c-0.2,0-0.4,0-0.7,0l-0.4-0.1c0,0-0.2,0.1-0.5,0.2
			c-0.3,0.1-0.4,0.3-0.4,0.4c0,0.2,0.2,0.4,0.6,0.4c0.2,0,0.5,0,1-0.1c0.5-0.1,0.8-0.1,1.2-0.1c2.3,0,3.4,0.9,3.4,2.7
			c0,1-0.5,1.8-1.4,2.4c-0.9,0.6-2,0.9-3.3,0.9C215.3,62.3,213.9,61.8,212.7,60.9z M215,51.9c0,0.6,0.2,1.1,0.5,1.4s0.8,0.5,1.3,0.5
			s1-0.2,1.3-0.5s0.4-0.8,0.4-1.4c0-0.5-0.2-0.9-0.5-1.3c-0.3-0.3-0.7-0.5-1.2-0.5c-0.5,0-1,0.2-1.3,0.5C215.2,51,215,51.4,215,51.9
			z"/>
		<path fill="#FFFFFF" d="M227.5,60c-0.2,0.7-0.8,1.2-1.6,1.6c-0.8,0.4-1.8,0.7-2.9,0.7v-2.1c1.8,0,2.7-0.4,2.7-1.3
			c0-0.6-0.2-1.5-0.7-2.7l-3.1-7.7h2.4l2.7,6.9l2.5-6.9h2.4L227.5,60z"/>
	</g>
	<g>
		<path fill="#FFFFFF" d="M112,80.5h-0.6l-0.9-5l-2.7,5h-0.6l-1.2-8.3h1.5l0.6,5l2.6-5h0.6l0.8,4.9l2.4-4.9h1.6L112,80.5z"/>
		<path fill="#FFFFFF" d="M117.5,77.8c0,0.1,0,0.2,0,0.3c0,0.4,0.1,0.7,0.4,1c0.3,0.2,0.6,0.3,1,0.3c0.2,0,0.5-0.1,0.8-0.2
			c0.3-0.1,0.6-0.3,0.7-0.4l-0.2,1.5c-0.5,0.2-1.1,0.3-1.7,0.3c-0.7,0-1.3-0.2-1.8-0.7c-0.5-0.5-0.7-1.1-0.7-1.9c0-1,0.3-1.9,1-2.6
			c0.7-0.7,1.5-1,2.6-1c0.6,0,1.2,0.1,1.5,0.4c0.4,0.3,0.6,0.6,0.6,1.1c0,0.7-0.3,1.2-0.9,1.6c-0.6,0.4-1.3,0.6-2.2,0.6
			C118.3,78,117.9,77.9,117.5,77.8z M117.8,76.7c0.2,0.1,0.5,0.1,0.8,0.1c0.5,0,0.9-0.1,1.3-0.2c0.4-0.2,0.5-0.4,0.5-0.7
			c0-0.3-0.4-0.5-1.1-0.5c-0.3,0-0.6,0.1-0.9,0.4S117.9,76.4,117.8,76.7z"/>
		<path fill="#FFFFFF" d="M127.4,77.8c0,0.1,0,0.2,0,0.3c0,0.4,0.1,0.7,0.4,1c0.3,0.2,0.6,0.3,1,0.3c0.2,0,0.5-0.1,0.8-0.2
			c0.3-0.1,0.6-0.3,0.7-0.4l-0.2,1.5c-0.5,0.2-1.1,0.3-1.7,0.3c-0.7,0-1.3-0.2-1.8-0.7c-0.5-0.5-0.7-1.1-0.7-1.9c0-1,0.3-1.9,1-2.6
			c0.7-0.7,1.5-1,2.6-1c0.6,0,1.2,0.1,1.5,0.4c0.4,0.3,0.6,0.6,0.6,1.1c0,0.7-0.3,1.2-0.9,1.6c-0.6,0.4-1.3,0.6-2.2,0.6
			C128.2,78,127.8,77.9,127.4,77.8z M127.6,76.7c0.2,0.1,0.5,0.1,0.8,0.1c0.5,0,0.9-0.1,1.3-0.2c0.4-0.2,0.5-0.4,0.5-0.7
			c0-0.3-0.4-0.5-1.1-0.5c-0.3,0-0.6,0.1-0.9,0.4S127.8,76.4,127.6,76.7z"/>
		<path fill="#FFFFFF" d="M141.1,76.5l-0.7,3.9h-1.4l0.7-3.8c0-0.1,0-0.2,0-0.4c0-0.5-0.3-0.8-0.8-0.8c-0.2,0-0.4,0.1-0.6,0.2
			c-0.2,0.1-0.4,0.3-0.5,0.4l-0.8,4.3h-1.4l0.8-4.2c0,0,0-0.1,0-0.1c0-0.4-0.3-0.6-0.9-0.6c-0.2,0-0.4,0.1-0.6,0.2
			c-0.2,0.1-0.4,0.3-0.5,0.5l-0.8,4.3H132l0.8-4.3c0-0.1,0-0.3,0-0.5c0-0.4-0.1-0.7-0.2-1.1l1.4-0.2c0,0.2,0.1,0.4,0.1,0.5
			c0.5-0.4,1-0.5,1.7-0.5c0.8,0,1.4,0.2,1.7,0.6c0.5-0.4,1.1-0.6,1.8-0.6c1.2,0,1.8,0.5,1.8,1.6C141.2,76.1,141.1,76.3,141.1,76.5z"
			/>
		<path fill="#FFFFFF" d="M143.1,80.2l-0.5,2.5h-1.4l1.2-6.5c0-0.2,0.1-0.5,0.1-0.7c0-0.3,0-0.7-0.1-1l1.4-0.2
			c0.1,0.1,0.1,0.3,0.1,0.6c0.5-0.4,1-0.6,1.6-0.6c1.6,0,2.4,0.8,2.4,2.3c0,1.1-0.3,2.1-1,2.8c-0.7,0.7-1.5,1.1-2.6,1.1
			C143.9,80.5,143.5,80.4,143.1,80.2z M143.3,79c0.2,0.2,0.5,0.3,0.8,0.3c0.7,0,1.3-0.2,1.7-0.7c0.4-0.4,0.6-1.1,0.6-1.9
			c0-0.4-0.1-0.7-0.4-0.9c-0.2-0.2-0.6-0.3-1-0.3c-0.2,0-0.4,0.1-0.7,0.2c-0.3,0.1-0.4,0.3-0.6,0.4L143.3,79z"/>
		<path fill="#FFFFFF" d="M148.7,78.1c0-1.1,0.3-2,1-2.7c0.7-0.7,1.5-1.1,2.5-1.1c0.8,0,1.4,0.2,1.8,0.6c0.4,0.4,0.6,1,0.6,1.7
			c0,1.1-0.3,2-1,2.8c-0.7,0.8-1.5,1.1-2.6,1.1c-0.8,0-1.4-0.2-1.8-0.6S148.7,78.9,148.7,78.1z M150.2,78.1c0,0.9,0.4,1.3,1.1,1.3
			c0.6,0,1.1-0.3,1.4-0.8c0.3-0.5,0.5-1.2,0.5-1.9c0-0.8-0.4-1.2-1.1-1.2c-0.6,0-1,0.3-1.4,0.8C150.4,76.7,150.2,77.4,150.2,78.1z"
			/>
		<path fill="#FFFFFF" d="M160.9,80.5h-0.5l-1.1-3.5l-2.3,3.5h-0.5l-1.2-6.1h1.4l0.6,3.3l2.1-3.3h0.5l1,3.3l1.7-3.3h1.5L160.9,80.5z
			"/>
		<path fill="#FFFFFF" d="M165.8,77.8c0,0.1,0,0.2,0,0.3c0,0.4,0.1,0.7,0.4,1c0.3,0.2,0.6,0.3,1,0.3c0.2,0,0.5-0.1,0.8-0.2
			s0.6-0.3,0.7-0.4l-0.2,1.5c-0.5,0.2-1.1,0.3-1.7,0.3c-0.7,0-1.3-0.2-1.8-0.7c-0.5-0.5-0.7-1.1-0.7-1.9c0-1,0.3-1.9,1-2.6
			c0.7-0.7,1.5-1,2.6-1c0.6,0,1.2,0.1,1.5,0.4c0.4,0.3,0.6,0.6,0.6,1.1c0,0.7-0.3,1.2-0.9,1.6c-0.6,0.4-1.3,0.6-2.2,0.6
			C166.6,78,166.2,77.9,165.8,77.8z M166,76.7c0.2,0.1,0.5,0.1,0.8,0.1c0.5,0,0.9-0.1,1.3-0.2c0.4-0.2,0.5-0.4,0.5-0.7
			c0-0.3-0.4-0.5-1.1-0.5c-0.3,0-0.6,0.1-0.9,0.4C166.4,76.1,166.2,76.4,166,76.7z"/>
		<path fill="#FFFFFF" d="M175.1,75.8c-0.3-0.2-0.6-0.4-0.9-0.4c-0.4,0-0.7,0.2-1,0.5s-0.5,0.7-0.6,1.1l-0.6,3.4h-1.4l1.1-6h1.4
			l-0.1,0.5c0.5-0.4,1.1-0.6,1.7-0.6c0.2,0,0.4,0,0.8,0.1L175.1,75.8z"/>
		<path fill="#FFFFFF" d="M180.6,80.2l-0.5,2.5h-1.4l1.2-6.5c0-0.2,0.1-0.5,0.1-0.7c0-0.3,0-0.7-0.1-1l1.4-0.2
			c0.1,0.1,0.1,0.3,0.1,0.6c0.5-0.4,1-0.6,1.6-0.6c1.6,0,2.4,0.8,2.4,2.3c0,1.1-0.3,2.1-1,2.8c-0.7,0.7-1.5,1.1-2.6,1.1
			C181.3,80.5,180.9,80.4,180.6,80.2z M180.8,79c0.2,0.2,0.5,0.3,0.8,0.3c0.7,0,1.3-0.2,1.7-0.7c0.4-0.4,0.6-1.1,0.6-1.9
			c0-0.4-0.1-0.7-0.4-0.9c-0.2-0.2-0.6-0.3-1-0.3c-0.2,0-0.4,0.1-0.7,0.2c-0.3,0.1-0.4,0.3-0.6,0.4L180.8,79z"/>
		<path fill="#FFFFFF" d="M187.7,77.8c0,0.1,0,0.2,0,0.3c0,0.4,0.1,0.7,0.4,1c0.3,0.2,0.6,0.3,1,0.3c0.2,0,0.5-0.1,0.8-0.2
			s0.6-0.3,0.7-0.4l-0.2,1.5c-0.5,0.2-1.1,0.3-1.7,0.3c-0.7,0-1.3-0.2-1.8-0.7c-0.5-0.5-0.7-1.1-0.7-1.9c0-1,0.3-1.9,1-2.6
			c0.7-0.7,1.5-1,2.6-1c0.6,0,1.2,0.1,1.5,0.4c0.4,0.3,0.6,0.6,0.6,1.1c0,0.7-0.3,1.2-0.9,1.6c-0.6,0.4-1.3,0.6-2.2,0.6
			C188.5,78,188.1,77.9,187.7,77.8z M188,76.7c0.2,0.1,0.5,0.1,0.8,0.1c0.5,0,0.9-0.1,1.3-0.2c0.4-0.2,0.5-0.4,0.5-0.7
			c0-0.3-0.4-0.5-1.1-0.5c-0.3,0-0.6,0.1-0.9,0.4C188.4,76.1,188.2,76.4,188,76.7z"/>
		<path fill="#FFFFFF" d="M192.6,78.1c0-1.1,0.3-2,1-2.7c0.7-0.7,1.5-1.1,2.5-1.1c0.8,0,1.4,0.2,1.8,0.6c0.4,0.4,0.6,1,0.6,1.7
			c0,1.1-0.3,2-1,2.8c-0.7,0.8-1.5,1.1-2.6,1.1c-0.8,0-1.4-0.2-1.8-0.6S192.6,78.9,192.6,78.1z M194,78.1c0,0.9,0.4,1.3,1.1,1.3
			c0.6,0,1.1-0.3,1.4-0.8c0.3-0.5,0.5-1.2,0.5-1.9c0-0.8-0.4-1.2-1.1-1.2c-0.6,0-1,0.3-1.4,0.8C194.2,76.7,194,77.4,194,78.1z"/>
		<path fill="#FFFFFF" d="M200.5,80.2l-0.5,2.5h-1.4l1.2-6.5c0-0.2,0.1-0.5,0.1-0.7c0-0.3,0-0.7-0.1-1l1.4-0.2
			c0.1,0.1,0.1,0.3,0.1,0.6c0.5-0.4,1-0.6,1.6-0.6c1.6,0,2.4,0.8,2.4,2.3c0,1.1-0.3,2.1-1,2.8c-0.7,0.7-1.5,1.1-2.6,1.1
			C201.2,80.5,200.8,80.4,200.5,80.2z M200.7,79c0.2,0.2,0.5,0.3,0.8,0.3c0.7,0,1.3-0.2,1.7-0.7c0.4-0.4,0.6-1.1,0.6-1.9
			c0-0.4-0.1-0.7-0.4-0.9c-0.2-0.2-0.6-0.3-1-0.3c-0.2,0-0.4,0.1-0.7,0.2c-0.3,0.1-0.4,0.3-0.6,0.4L200.7,79z"/>
		<path fill="#FFFFFF" d="M208.4,79.9c-0.2,0.4-0.6,0.5-1,0.5c-0.3,0-0.6-0.1-0.8-0.3c-0.2-0.2-0.3-0.5-0.3-0.9c0-0.5,0.1-1.1,0.3-2
			l1.1-5.4h1.4l-1.2,5.6c-0.2,0.8-0.2,1.4-0.2,1.7c0,0.2,0.1,0.4,0.2,0.5C208,79.9,208.2,79.9,208.4,79.9z"/>
		<path fill="#FFFFFF" d="M211.3,77.8c0,0.1,0,0.2,0,0.3c0,0.4,0.1,0.7,0.4,1c0.3,0.2,0.6,0.3,1,0.3c0.2,0,0.5-0.1,0.8-0.2
			s0.6-0.3,0.7-0.4l-0.2,1.5c-0.5,0.2-1.1,0.3-1.7,0.3c-0.7,0-1.3-0.2-1.8-0.7c-0.5-0.5-0.7-1.1-0.7-1.9c0-1,0.3-1.9,1-2.6
			c0.7-0.7,1.5-1,2.6-1c0.6,0,1.2,0.1,1.5,0.4c0.4,0.3,0.6,0.6,0.6,1.1c0,0.7-0.3,1.2-0.9,1.6c-0.6,0.4-1.3,0.6-2.2,0.6
			C212.1,78,211.7,77.9,211.3,77.8z M211.6,76.7c0.2,0.1,0.5,0.1,0.8,0.1c0.5,0,0.9-0.1,1.3-0.2c0.4-0.2,0.5-0.4,0.5-0.7
			c0-0.3-0.4-0.5-1.1-0.5c-0.3,0-0.6,0.1-0.9,0.4C212,76.1,211.7,76.4,211.6,76.7z"/>
	</g>
</g>
<g id="Layer_2">
	<g>
		<path fill="#FFFFFF" d="M12.4,111.6l-0.7,4.1h-1.5l2-10.7c0.9-0.1,1.6-0.1,2.2-0.1c2.7,0,4,1,4,3.1c0,1.2-0.4,2.1-1.2,2.8
			c-0.8,0.7-1.9,1-3.2,1C13.4,111.8,12.9,111.7,12.4,111.6z M13.3,106.3l-0.7,4c0.3,0.1,0.7,0.2,1.2,0.2c0.9,0,1.6-0.2,2.1-0.6
			c0.5-0.4,0.8-1,0.8-1.7c0-1.3-0.7-2-2.1-2C14.2,106.2,13.8,106.2,13.3,106.3z"/>
		<path fill="#FFFFFF" d="M24.2,109.3c-0.3-0.2-0.6-0.4-1-0.4c-0.5,0-1,0.2-1.4,0.7c-0.4,0.5-0.7,1-0.8,1.6l-0.8,4.5h-1.4l1.4-7.8
			h1.4l-0.2,1.3c0.7-0.9,1.5-1.4,2.5-1.4c0.2,0,0.4,0,0.8,0.1L24.2,109.3z"/>
		<path fill="#FFFFFF" d="M25,112.9c0-1.4,0.4-2.6,1.2-3.6s1.9-1.5,3.1-1.5c1,0,1.7,0.3,2.2,0.8c0.5,0.5,0.8,1.2,0.8,2.2
			c0,0.8-0.1,1.5-0.5,2.3c-0.3,0.8-0.8,1.5-1.5,2c-0.7,0.5-1.5,0.8-2.5,0.8c-0.9,0-1.7-0.3-2.2-0.8C25.2,114.6,25,113.8,25,112.9z
			 M26.4,112.8c0,1.3,0.6,2,1.7,2c0.8,0,1.5-0.4,2-1.2c0.5-0.8,0.7-1.7,0.7-2.8c0-1.3-0.6-1.9-1.7-1.9c-0.6,0-1.1,0.2-1.5,0.6
			c-0.4,0.4-0.7,0.9-0.9,1.5S26.4,112.2,26.4,112.8z"/>
		<path fill="#FFFFFF" d="M35.8,107.9l-0.9,5c0,0.2-0.1,0.4-0.1,0.6c0,0.8,0.4,1.2,1.3,1.2c0.5,0,1-0.2,1.5-0.6s0.8-0.9,0.9-1.4
			l0.9-4.8h1.5l-1.4,7.8h-1.5l0.2-1.1c-0.5,0.8-1.5,1.3-2.8,1.3c-0.6,0-1.1-0.2-1.4-0.5s-0.5-0.9-0.5-1.5c0-0.2,0-0.5,0.1-0.8
			l0.9-5.1H35.8z"/>
		<path fill="#FFFFFF" d="M46.6,115.8l0.2-0.9c-0.6,0.7-1.3,1-2.3,1c-0.8,0-1.5-0.3-2-0.8c-0.5-0.5-0.7-1.2-0.7-2.1
			c0-1.5,0.4-2.8,1.2-3.8c0.8-1,1.9-1.5,3.1-1.5c0.7,0,1.3,0.3,1.7,0.9l0.7-4h1.3L48,115.8H46.6z M47.6,110.1c0,0-0.1-0.2-0.2-0.4
			c-0.1-0.2-0.3-0.4-0.5-0.5c-0.2-0.1-0.4-0.2-0.6-0.2c-0.9,0-1.6,0.4-2.1,1.1c-0.6,0.7-0.9,1.6-0.9,2.7c0,1.4,0.6,2.1,1.7,2.1
			c0.5,0,1-0.3,1.4-0.8c0.4-0.5,0.7-1.2,0.9-2L47.6,110.1z"/>
		<path fill="#FFFFFF" d="M56.7,109h-0.9l0.2-1.1h0.9l0.3-1.6l1.6-0.6l-0.5,2.2h2.2l-0.2,1.1h-2.2l-0.8,3.9
			c-0.1,0.3-0.1,0.5-0.1,0.7c0,0.7,0.4,1.1,1.1,1.1c0.4,0,0.7-0.1,1.2-0.3l-0.1,1.2c-0.4,0.1-1,0.2-1.9,0.2c-0.6,0-1-0.2-1.3-0.5
			c-0.3-0.3-0.5-0.8-0.5-1.4c0-0.1,0-0.3,0.1-0.5L56.7,109z"/>
		<path fill="#FFFFFF" d="M61.3,112.9c0-1.4,0.4-2.6,1.2-3.6s1.9-1.5,3.1-1.5c1,0,1.7,0.3,2.2,0.8c0.5,0.5,0.8,1.2,0.8,2.2
			c0,0.8-0.1,1.5-0.5,2.3c-0.3,0.8-0.8,1.5-1.5,2c-0.7,0.5-1.5,0.8-2.5,0.8c-0.9,0-1.7-0.3-2.2-0.8
			C61.6,114.6,61.3,113.8,61.3,112.9z M62.8,112.8c0,1.3,0.6,2,1.7,2c0.8,0,1.5-0.4,2-1.2c0.5-0.8,0.7-1.7,0.7-2.8
			c0-1.3-0.6-1.9-1.7-1.9c-0.6,0-1.1,0.2-1.5,0.6c-0.4,0.4-0.7,0.9-0.9,1.5S62.8,112.2,62.8,112.8z"/>
		<path fill="#FFFFFF" d="M75.5,115l-0.7,0.9h-0.9c0.3-0.9,0.6-2,0.8-3.2l1.4-8h1.3l-0.7,4c0.4-0.6,1-1,2-1c0.8,0,1.5,0.3,2.1,0.9
			c0.5,0.6,0.8,1.5,0.8,2.5c0,1.2-0.4,2.3-1.3,3.3s-1.9,1.4-3.2,1.4C76.4,115.9,75.8,115.6,75.5,115z M76.5,110l-0.7,3.8
			c0,0.1,0,0.2,0.2,0.3s0.3,0.3,0.5,0.4c0.2,0.1,0.4,0.2,0.6,0.2c0.8,0,1.5-0.4,2.1-1.1s0.9-1.5,0.9-2.3c0-1.6-0.7-2.4-2.1-2.4
			C77.4,108.9,77,109.3,76.5,110z"/>
		<path fill="#FFFFFF" d="M84.4,112c0,0.2-0.1,0.5-0.1,0.7c0,0.6,0.2,1.1,0.5,1.5s0.9,0.5,1.5,0.5c0.6,0,1.2-0.2,1.7-0.6l-0.1,1.4
			c-0.8,0.3-1.5,0.4-2.1,0.4c-2,0-3-1.1-3-3.4c0-1.3,0.4-2.5,1.3-3.4s1.9-1.4,3.2-1.4c0.8,0,1.4,0.2,1.9,0.5s0.7,0.8,0.7,1.4
			c0,0.9-0.4,1.5-1.1,2c-0.7,0.5-1.6,0.7-2.7,0.7C85.5,112.4,84.9,112.3,84.4,112z M84.7,111c0.4,0.2,0.8,0.2,1.3,0.2
			c0.8,0,1.4-0.1,1.9-0.4c0.5-0.2,0.7-0.6,0.7-1.1c0-0.6-0.4-0.9-1.2-0.9C86.1,108.9,85.2,109.6,84.7,111z"/>
		<path fill="#FFFFFF" d="M92.7,113.7c0.3,0,0.6,0.1,0.8,0.3c0.2,0.2,0.3,0.5,0.3,0.8s-0.1,0.6-0.3,0.8c-0.2,0.2-0.5,0.3-0.8,0.3
			s-0.6-0.1-0.8-0.3c-0.2-0.2-0.3-0.5-0.3-0.8s0.1-0.6,0.3-0.8C92.1,113.8,92.4,113.7,92.7,113.7z"/>
		<path fill="#FFFFFF" d="M98.3,113.7c0.3,0,0.6,0.1,0.8,0.3c0.2,0.2,0.3,0.5,0.3,0.8s-0.1,0.6-0.3,0.8c-0.2,0.2-0.5,0.3-0.8,0.3
			s-0.6-0.1-0.8-0.3c-0.2-0.2-0.3-0.5-0.3-0.8s0.1-0.6,0.3-0.8C97.8,113.8,98,113.7,98.3,113.7z"/>
		<path fill="#FFFFFF" d="M104,113.7c0.3,0,0.6,0.1,0.8,0.3c0.2,0.2,0.3,0.5,0.3,0.8s-0.1,0.6-0.3,0.8c-0.2,0.2-0.5,0.3-0.8,0.3
			s-0.6-0.1-0.8-0.3c-0.2-0.2-0.3-0.5-0.3-0.8s0.1-0.6,0.3-0.8C103.4,113.8,103.7,113.7,104,113.7z"/>
		<path fill="#FFFFFF" d="M114.3,109h-0.9l0.2-1.1h0.9l0.3-1.6l1.6-0.6l-0.5,2.2h2.2l-0.2,1.1h-2.2l-0.8,3.9
			c-0.1,0.3-0.1,0.5-0.1,0.7c0,0.7,0.4,1.1,1.1,1.1c0.4,0,0.7-0.1,1.2-0.3l-0.1,1.2c-0.4,0.1-1,0.2-1.9,0.2c-0.6,0-1-0.2-1.3-0.5
			c-0.3-0.3-0.5-0.8-0.5-1.4c0-0.1,0-0.3,0.1-0.5L114.3,109z"/>
		<path fill="#FFFFFF" d="M123.8,115.8l0.9-4.9c0-0.2,0.1-0.4,0.1-0.5c0-0.9-0.4-1.4-1.3-1.4c-0.3,0-0.7,0.1-1.1,0.3
			c-0.4,0.2-0.7,0.4-0.9,0.7l-1,5.8H119l1.9-11.1h1.4l-0.6,4.1c0.2-0.3,0.6-0.5,1-0.7c0.4-0.2,0.9-0.3,1.3-0.3
			c0.7,0,1.2,0.2,1.6,0.6c0.4,0.4,0.6,1,0.6,1.7c0,0.2,0,0.5-0.1,0.8l-0.9,4.9H123.8z"/>
		<path fill="#FFFFFF" d="M129.2,112c0,0.2-0.1,0.5-0.1,0.7c0,0.6,0.2,1.1,0.5,1.5s0.9,0.5,1.5,0.5c0.6,0,1.2-0.2,1.7-0.6l-0.1,1.4
			c-0.8,0.3-1.5,0.4-2.1,0.4c-2,0-3-1.1-3-3.4c0-1.3,0.4-2.5,1.3-3.4s1.9-1.4,3.2-1.4c0.8,0,1.4,0.2,1.9,0.5s0.7,0.8,0.7,1.4
			c0,0.9-0.4,1.5-1.1,2c-0.7,0.5-1.6,0.7-2.7,0.7C130.3,112.4,129.7,112.3,129.2,112z M129.5,111c0.4,0.2,0.8,0.2,1.3,0.2
			c0.8,0,1.4-0.1,1.9-0.4c0.5-0.2,0.7-0.6,0.7-1.1c0-0.6-0.4-0.9-1.2-0.9C130.9,108.9,130,109.6,129.5,111z"/>
		<path fill="#FFFFFF" d="M142.5,111.6l-0.7,4.1h-1.5l2-10.7c0.9-0.1,1.6-0.1,2.2-0.1c2.7,0,4,1,4,3.1c0,1.2-0.4,2.1-1.2,2.8
			c-0.8,0.7-1.9,1-3.2,1C143.4,111.8,142.9,111.7,142.5,111.6z M143.4,106.3l-0.7,4c0.3,0.1,0.7,0.2,1.2,0.2c0.9,0,1.6-0.2,2.1-0.6
			c0.5-0.4,0.8-1,0.8-1.7c0-1.3-0.7-2-2.1-2C144.3,106.2,143.9,106.2,143.4,106.3z"/>
		<path fill="#FFFFFF" d="M150.4,112c0,0.2-0.1,0.5-0.1,0.7c0,0.6,0.2,1.1,0.5,1.5s0.9,0.5,1.5,0.5c0.6,0,1.2-0.2,1.7-0.6l-0.1,1.4
			c-0.8,0.3-1.5,0.4-2.1,0.4c-2,0-3-1.1-3-3.4c0-1.3,0.4-2.5,1.3-3.4s1.9-1.4,3.2-1.4c0.8,0,1.4,0.2,1.9,0.5s0.7,0.8,0.7,1.4
			c0,0.9-0.4,1.5-1.1,2c-0.7,0.5-1.6,0.7-2.7,0.7C151.5,112.4,150.9,112.3,150.4,112z M150.7,111c0.4,0.2,0.8,0.2,1.3,0.2
			c0.8,0,1.4-0.1,1.9-0.4c0.5-0.2,0.7-0.6,0.7-1.1c0-0.6-0.4-0.9-1.2-0.9C152,108.9,151.2,109.6,150.7,111z"/>
		<path fill="#FFFFFF" d="M156.9,112.9c0-1.4,0.4-2.6,1.2-3.6s1.9-1.5,3.1-1.5c1,0,1.7,0.3,2.2,0.8c0.5,0.5,0.8,1.2,0.8,2.2
			c0,0.8-0.2,1.5-0.5,2.3c-0.3,0.8-0.8,1.5-1.5,2c-0.7,0.5-1.5,0.8-2.5,0.8c-0.9,0-1.7-0.3-2.2-0.8
			C157.1,114.6,156.9,113.8,156.9,112.9z M158.3,112.8c0,1.3,0.6,2,1.7,2c0.8,0,1.5-0.4,2-1.2c0.5-0.8,0.7-1.7,0.7-2.8
			c0-1.3-0.6-1.9-1.7-1.9c-0.6,0-1.1,0.2-1.5,0.6c-0.4,0.4-0.7,0.9-0.9,1.5S158.3,112.2,158.3,112.8z"/>
		<path fill="#FFFFFF" d="M166.4,115.4l-0.6,3.5h-1.4l1.5-8.6c0.1-0.4,0.1-0.7,0.1-1.1c0-0.4,0-0.7-0.1-1.1l1.4-0.3
			c0,0.1,0.1,0.4,0.1,1c0.2-0.3,0.6-0.5,1-0.7c0.4-0.2,0.8-0.3,1.2-0.3c1,0,1.7,0.2,2.2,0.7c0.5,0.5,0.7,1.2,0.7,2.2
			c0,1.5-0.4,2.7-1.2,3.7c-0.8,1-1.9,1.5-3.2,1.5c-0.3,0-0.6-0.1-1-0.2C166.8,115.7,166.5,115.5,166.4,115.4z M166.6,114.2
			c0.1,0.2,0.3,0.3,0.5,0.4c0.3,0.1,0.5,0.2,0.8,0.2c1,0,1.8-0.3,2.4-1c0.6-0.7,0.8-1.6,0.8-2.8c0-0.6-0.2-1.1-0.5-1.4
			c-0.3-0.3-0.8-0.5-1.5-0.5c-0.3,0-0.6,0.1-1,0.3c-0.4,0.2-0.6,0.4-0.8,0.6L166.6,114.2z"/>
		<path fill="#FFFFFF" d="M176.6,114.9l-0.2,1c-1.6,0-2.4-0.6-2.4-1.7c0-0.4,0.1-1.1,0.4-2.4l1.4-7.1h1.5l-1.3,6.7
			c-0.3,1.4-0.4,2.3-0.4,2.6C175.6,114.6,175.9,114.9,176.6,114.9z"/>
		<path fill="#FFFFFF" d="M180.3,112c0,0.2-0.1,0.5-0.1,0.7c0,0.6,0.2,1.1,0.5,1.5s0.9,0.5,1.5,0.5c0.6,0,1.2-0.2,1.7-0.6l-0.1,1.4
			c-0.8,0.3-1.5,0.4-2.1,0.4c-2,0-3-1.1-3-3.4c0-1.3,0.4-2.5,1.3-3.4s1.9-1.4,3.2-1.4c0.8,0,1.4,0.2,1.9,0.5s0.7,0.8,0.7,1.4
			c0,0.9-0.4,1.5-1.1,2c-0.7,0.5-1.6,0.7-2.7,0.7C181.4,112.4,180.8,112.3,180.3,112z M180.5,111c0.4,0.2,0.8,0.2,1.3,0.2
			c0.8,0,1.4-0.1,1.9-0.4c0.5-0.2,0.7-0.6,0.7-1.1c0-0.6-0.4-0.9-1.2-0.9C181.9,108.9,181,109.6,180.5,111z"/>
		<path fill="#FFFFFF" d="M191.1,106c-0.1,1.3-0.9,2.3-2.2,3.2l-0.4-0.7l0.6-0.5c0.3-0.2,0.4-0.5,0.5-0.8c0-0.2-0.1-0.4-0.3-0.7
			s-0.3-0.5-0.3-0.7c0.1-0.7,0.4-1.1,1.2-1.1c0.7,0,1,0.4,1,1.1C191.1,105.8,191.1,105.9,191.1,106z"/>
		<path fill="#FFFFFF" d="M190.9,115.3l0.7-1.3c0.2,0.2,0.5,0.4,0.8,0.5c0.4,0.2,0.7,0.2,0.9,0.2c0.4,0,0.8-0.1,1.1-0.4
			s0.4-0.6,0.4-1c0-0.2-0.1-0.4-0.2-0.5c-0.1-0.2-0.4-0.3-0.8-0.6l-1-0.6c-0.3-0.2-0.6-0.4-0.7-0.7c-0.2-0.3-0.2-0.6-0.2-0.9
			c0-0.7,0.3-1.3,0.8-1.8c0.6-0.4,1.3-0.7,2.1-0.7c0.6,0,1.3,0.2,2.1,0.5l-0.6,1.3c-0.5-0.4-1-0.7-1.5-0.7c-0.4,0-0.7,0.1-0.9,0.3
			c-0.3,0.2-0.4,0.4-0.4,0.7c0,0.2,0.1,0.4,0.2,0.6c0.2,0.2,0.4,0.3,0.8,0.5l1,0.6c0.3,0.2,0.6,0.4,0.7,0.7c0.2,0.3,0.2,0.6,0.2,0.9
			c0,0.8-0.3,1.5-0.9,2c-0.6,0.5-1.4,0.7-2.3,0.7C192.3,115.9,191.5,115.7,190.9,115.3z"/>
		<path fill="#FFFFFF" d="M204.1,105h1.5l-1.3,7.3c0,0.2,0,0.3,0,0.5c0,0.6,0.2,1,0.5,1.3c0.3,0.3,0.8,0.5,1.4,0.5
			c0.7,0,1.3-0.2,1.8-0.6s0.8-1,0.9-1.7l1.3-7.3h1.5l-1.3,7.5c-0.2,1.1-0.7,1.9-1.5,2.5c-0.8,0.6-1.8,0.9-2.9,0.9
			c-1,0-1.8-0.2-2.4-0.7s-0.9-1.1-0.9-1.9c0-0.3,0-0.5,0.1-0.8L204.1,105z"/>
		<path fill="#FFFFFF" d="M216.9,115.8l0.8-4.6c0.1-0.4,0.1-0.7,0.1-1c0-0.8-0.4-1.2-1.3-1.2c-0.3,0-0.7,0.1-1.1,0.3
			c-0.4,0.2-0.7,0.4-0.9,0.7l-1,5.8h-1.4l1.1-5.9c0-0.1,0-0.3,0-0.5c0-0.5-0.1-0.9-0.2-1.3l1.3-0.3c0.1,0.7,0.2,1.1,0.2,1.2
			c0.6-0.8,1.5-1.2,2.6-1.2c1.4,0,2.1,0.7,2.1,2.2c0,0.3,0,0.6-0.1,1l-0.8,4.9H216.9z"/>
		<path fill="#FFFFFF" d="M221,115.8l1.2-6.7h-1l0.3-1.2h2.4l-1.4,7.8H221z M223.2,104.8c0.3,0,0.5,0.1,0.7,0.3
			c0.2,0.2,0.3,0.4,0.3,0.7c0,0.3-0.1,0.5-0.3,0.7c-0.2,0.2-0.4,0.3-0.7,0.3c-0.3,0-0.5-0.1-0.7-0.3c-0.2-0.2-0.3-0.4-0.3-0.7
			c0-0.3,0.1-0.5,0.3-0.7C222.7,104.9,222.9,104.8,223.2,104.8z"/>
		<path fill="#FFFFFF" d="M228.1,115.9h-0.4l-2.3-8h1.5l1.4,5.4l3-5.4h1.6L228.1,115.9z"/>
		<path fill="#FFFFFF" d="M234.5,112c0,0.2-0.1,0.5-0.1,0.7c0,0.6,0.2,1.1,0.5,1.5s0.9,0.5,1.5,0.5c0.6,0,1.2-0.2,1.7-0.6l-0.1,1.4
			c-0.8,0.3-1.5,0.4-2.1,0.4c-2,0-3-1.1-3-3.4c0-1.3,0.4-2.5,1.3-3.4s1.9-1.4,3.2-1.4c0.8,0,1.4,0.2,1.9,0.5s0.7,0.8,0.7,1.4
			c0,0.9-0.4,1.5-1.1,2c-0.7,0.5-1.6,0.7-2.7,0.7C235.5,112.4,235,112.3,234.5,112z M234.7,111c0.4,0.2,0.8,0.2,1.3,0.2
			c0.8,0,1.4-0.1,1.9-0.4c0.5-0.2,0.7-0.6,0.7-1.1c0-0.6-0.4-0.9-1.2-0.9C236.1,108.9,235.2,109.6,234.7,111z"/>
		<path fill="#FFFFFF" d="M246.5,109.3c-0.3-0.2-0.6-0.4-1-0.4c-0.5,0-1,0.2-1.4,0.7c-0.4,0.5-0.7,1-0.8,1.6l-0.8,4.5H241l1.4-7.8
			h1.4l-0.2,1.3c0.7-0.9,1.5-1.4,2.5-1.4c0.2,0,0.4,0,0.8,0.1L246.5,109.3z"/>
		<path fill="#FFFFFF" d="M246.9,115.3l0.7-1.3c0.2,0.2,0.5,0.4,0.8,0.5c0.4,0.2,0.7,0.2,0.9,0.2c0.4,0,0.8-0.1,1.1-0.4
			s0.4-0.6,0.4-1c0-0.2-0.1-0.4-0.2-0.5c-0.1-0.2-0.4-0.3-0.8-0.6l-1-0.6c-0.3-0.2-0.6-0.4-0.7-0.7c-0.2-0.3-0.2-0.6-0.2-0.9
			c0-0.7,0.3-1.3,0.8-1.8c0.6-0.4,1.3-0.7,2.1-0.7c0.6,0,1.3,0.2,2.1,0.5l-0.6,1.3c-0.5-0.4-1-0.7-1.5-0.7c-0.4,0-0.7,0.1-0.9,0.3
			c-0.3,0.2-0.4,0.4-0.4,0.7c0,0.2,0.1,0.4,0.2,0.6c0.2,0.2,0.4,0.3,0.8,0.5l1,0.6c0.3,0.2,0.6,0.4,0.7,0.7c0.2,0.3,0.2,0.6,0.2,0.9
			c0,0.8-0.3,1.5-0.9,2c-0.6,0.5-1.4,0.7-2.3,0.7C248.3,115.9,247.5,115.7,246.9,115.3z"/>
		<path fill="#FFFFFF" d="M254,115.8l1.2-6.7h-1l0.3-1.2h2.4l-1.4,7.8H254z M256.3,104.8c0.3,0,0.5,0.1,0.7,0.3
			c0.2,0.2,0.3,0.4,0.3,0.7c0,0.3-0.1,0.5-0.3,0.7c-0.2,0.2-0.4,0.3-0.7,0.3c-0.3,0-0.5-0.1-0.7-0.3c-0.2-0.2-0.3-0.4-0.3-0.7
			c0-0.3,0.1-0.5,0.3-0.7C255.8,104.9,256,104.8,256.3,104.8z"/>
		<path fill="#FFFFFF" d="M260.1,109h-0.9l0.2-1.1h0.9l0.3-1.6l1.6-0.6l-0.5,2.2h2.2l-0.2,1.1h-2.2l-0.8,3.9
			c-0.1,0.3-0.1,0.5-0.1,0.7c0,0.7,0.4,1.1,1.1,1.1c0.4,0,0.7-0.1,1.2-0.3l-0.1,1.2c-0.4,0.1-1,0.2-1.9,0.2c-0.6,0-1-0.2-1.3-0.5
			c-0.3-0.3-0.5-0.8-0.5-1.4c0-0.1,0-0.3,0.1-0.5L260.1,109z"/>
		<path fill="#FFFFFF" d="M264.4,118.8v-1.4c0.9,0,1.6-0.1,1.9-0.4c0.4-0.3,0.7-0.7,0.8-1.2c-0.7,0-1.1-0.7-1.4-2l-1-5.8h1.5
			l0.9,5.7c0.1,0.6,0.3,0.8,0.6,0.8l2.8-6.5h1.6l-3.9,8.8c-0.3,0.7-0.8,1.3-1.3,1.6C266.4,118.7,265.6,118.8,264.4,118.8z"/>
	</g>
	<g>
	</g>
	<g>
	</g>
	<g>
	</g>
	<g>
	</g>
	<g>
	</g>
	<g>
	</g>
</g>
</svg>
